<svg width="34" height="53" viewBox="0 0 34 53" fill="none" xmlns="http://www.w3.org/2000/svg">
<path d="M24.5922 0C23.1428 0 21.78 0.564574 20.7548 1.58979L16.5625 5.78207L12.3702 1.58979C11.345 0.564574 9.98222 0 8.53279 0C5.54016 0 3.10547 2.43469 3.10547 5.42732V28.8622L1.49808 28.0585C1.17739 27.8981 0.796242 27.9152 0.490974 28.1039C0.185707 28.2926 0 28.6256 0 28.9844V51.9648C0 52.5365 0.463543 53 1.03516 53H7.24609C7.81771 53 8.28125 52.5365 8.28125 51.9648V32.0898C8.28125 31.6977 8.05973 31.3394 7.70902 31.164L5.17578 29.8974V5.42732C5.17578 3.57626 6.68173 2.07031 8.53279 2.07031C9.42913 2.07031 10.2722 2.41957 10.9063 3.05381L15.0985 7.24609L11.4384 10.9062C10.07 12.2747 9.31641 14.0941 9.31641 16.0294V16.5625C9.31641 20.558 12.567 23.8086 16.5625 23.8086C20.558 23.8086 23.8086 20.558 23.8086 16.5625V16.0294C23.8086 14.0942 23.055 12.2748 21.6866 10.9063L18.0265 7.24609L22.2188 3.05381C22.8529 2.41957 23.6959 2.07031 24.5922 2.07031C26.4433 2.07031 27.9492 3.57626 27.9492 5.42732V29.8974L25.416 31.164C25.0653 31.3394 24.8438 31.6977 24.8438 32.0898V51.9648C24.8438 52.5365 25.3073 53 25.8789 53H32.0898C32.6615 53 33.125 52.5365 33.125 51.9648V45.133C33.125 44.5614 32.6615 44.0979 32.0898 44.0979C31.5182 44.0979 31.0547 44.5614 31.0547 45.133V50.9297H26.9141V32.7297L31.0547 30.6594V35.8164C31.0547 36.388 31.5182 36.8516 32.0898 36.8516C32.6615 36.8516 33.125 36.388 33.125 35.8164V28.9844C33.125 28.6256 32.9392 28.2924 32.634 28.1038C32.329 27.9152 31.9477 27.8983 31.6269 28.0584L30.0195 28.8622V5.42732C30.0195 2.43469 27.5848 0 24.5922 0V0ZM6.21094 50.9297H2.07031V30.6594L6.21094 32.7297V50.9297ZM21.7383 16.0294V16.5625C21.7383 19.4164 19.4164 21.7383 16.5625 21.7383C13.7086 21.7383 11.3867 19.4164 11.3867 16.5625V16.0294C11.3867 14.647 11.925 13.3476 12.9024 12.3702L16.5625 8.71012L20.2226 12.3702C21.2 13.3475 21.7383 14.647 21.7383 16.0294Z" fill="#FF2625" fill-opacity="0.2"/>
<path d="M32.0898 41.5098C32.6615 41.5098 33.125 41.0463 33.125 40.4746C33.125 39.9029 32.6615 39.4395 32.0898 39.4395C31.5181 39.4395 31.0547 39.9029 31.0547 40.4746C31.0547 41.0463 31.5181 41.5098 32.0898 41.5098Z" fill="#FF2625" fill-opacity="0.2"/>
</svg>
