<svg width="720" height="149" viewBox="0 0 720 149" fill="none" xmlns="http://www.w3.org/2000/svg">
<path d="M96.6 0.399991V22.8H23.4V61.6H88.6V84H23.4V123.6H99.4V146H2.98023e-07V0.399991H96.6ZM179.441 146L158.041 118L138.241 146H115.641L146.841 103.6L114.641 61.4H142.441L163.041 88.6L180.241 61.4H202.641L173.441 102.2L206.441 146H179.441ZM264.325 129C270.592 129 276.925 126.8 283.325 122.4L293.525 139C288.992 141.8 284.125 144.067 278.925 145.8C273.725 147.4 268.725 148.2 263.925 148.2C254.192 148.2 245.725 146.267 238.525 142.4C231.458 138.533 225.992 133.2 222.125 126.4C218.392 119.6 216.525 111.8 216.525 103C216.525 94.7333 218.658 87.1333 222.925 80.2C227.192 73.2667 232.992 67.8 240.325 63.8C247.658 59.6667 255.658 57.6 264.325 57.6C275.792 57.6 285.325 61 292.925 67.8C300.525 74.4667 305.592 83.9333 308.125 96.2L242.925 118.2C245.192 121.667 248.192 124.333 251.925 126.2C255.658 128.067 259.792 129 264.325 129ZM262.525 75.2C255.458 75.2 249.658 77.6667 245.125 82.6C240.725 87.5333 238.525 93.9333 238.525 101.8C238.525 103.267 238.592 104.4 238.725 105.2L283.125 89.4C281.392 85.2667 278.858 81.8667 275.525 79.2C272.192 76.5333 267.858 75.2 262.525 75.2ZM351.966 81C354.232 76.4667 357.432 72.4 361.566 68.8C365.699 65.2 369.899 62.4667 374.166 60.6C378.566 58.6 382.232 57.6 385.166 57.6L384.166 80C378.032 79.4667 372.566 80.6 367.766 83.4C362.966 86.0667 359.232 89.8 356.566 94.6C353.899 99.2667 352.566 104.267 352.566 109.6V146H330.166V61.4H350.366L351.966 81ZM474.384 138.2C470.651 141.267 466.051 143.733 460.584 145.6C455.251 147.333 449.851 148.2 444.384 148.2C435.051 148.2 426.784 146.4 419.584 142.8C412.518 139.2 407.051 134.067 403.184 127.4C399.318 120.6 397.384 112.667 397.384 103.6C397.384 94.6667 399.451 86.8667 403.584 80.2C407.718 73.4 413.184 68.2 419.984 64.6C426.918 61 434.318 59.2 442.184 59.2C455.518 59.2 466.518 62.8 475.184 70L463.984 84.6C461.451 82.6 458.451 80.9333 454.984 79.6C451.651 78.1333 448.051 77.4 444.184 77.4C437.384 77.4 431.584 79.9333 426.784 85C422.118 89.9333 419.784 96.1333 419.784 103.6C419.784 111.067 422.251 117.333 427.184 122.4C432.251 127.333 438.651 129.8 446.384 129.8C453.051 129.8 458.651 127.933 463.184 124.2L474.384 138.2ZM519.753 61.4V146H497.353V61.4H519.753ZM496.353 31.2C496.353 27.8667 497.686 25.0667 500.353 22.8C503.02 20.4 506.02 19.2 509.353 19.2C512.553 19.2 515.42 20.4 517.953 22.8C520.62 25.0667 521.953 27.8667 521.953 31.2C521.953 34.5333 520.62 37.3333 517.953 39.6C515.42 41.8667 512.553 43 509.353 43C506.02 43 503.02 41.8667 500.353 39.6C497.686 37.3333 496.353 34.5333 496.353 31.2ZM575.878 147.8C569.345 147.8 563.145 146.667 557.278 144.4C551.545 142 546.811 138.667 543.078 134.4L552.478 121.8C559.545 128.733 566.745 132.2 574.078 132.2C578.078 132.2 581.345 131.467 583.878 130C586.545 128.4 587.878 126.067 587.878 123C587.878 119.8 586.545 117.4 583.878 115.8C581.211 114.2 578.211 112.933 574.878 112C571.678 110.933 569.611 110.267 568.678 110C561.345 107.733 555.878 104.467 552.278 100.2C548.678 95.8 546.878 90.6667 546.878 84.8C546.878 80.1333 548.011 75.8 550.278 71.8C552.678 67.6667 556.211 64.3333 560.878 61.8C565.678 59.2667 571.478 58 578.278 58C584.678 58 590.211 58.7333 594.878 60.2C599.678 61.6667 604.145 64 608.278 67.2L599.678 80.6C597.278 78.3333 594.345 76.5333 590.878 75.2C587.545 73.8667 584.478 73.2 581.678 73.2C578.211 73.2 575.345 74 573.078 75.6C570.811 77.2 569.678 79.2667 569.678 81.8C569.545 84.8667 570.678 87.2 573.078 88.8C575.478 90.2667 579.345 91.8667 584.678 93.6C586.945 94.2667 588.411 94.7333 589.078 95C595.745 97.1333 600.945 100.133 604.678 104C608.411 107.733 610.278 112.667 610.278 118.8C610.278 127.067 607.278 134 601.278 139.6C595.411 145.067 586.945 147.8 575.878 147.8ZM675.848 129C682.115 129 688.448 126.8 694.848 122.4L705.048 139C700.515 141.8 695.648 144.067 690.448 145.8C685.248 147.4 680.248 148.2 675.448 148.2C665.715 148.2 657.248 146.267 650.048 142.4C642.982 138.533 637.515 133.2 633.648 126.4C629.915 119.6 628.048 111.8 628.048 103C628.048 94.7333 630.182 87.1333 634.448 80.2C638.715 73.2667 644.515 67.8 651.848 63.8C659.182 59.6667 667.182 57.6 675.848 57.6C687.315 57.6 696.848 61 704.448 67.8C712.048 74.4667 717.115 83.9333 719.648 96.2L654.448 118.2C656.715 121.667 659.715 124.333 663.448 126.2C667.182 128.067 671.315 129 675.848 129ZM674.048 75.2C666.982 75.2 661.182 77.6667 656.648 82.6C652.248 87.5333 650.048 93.9333 650.048 101.8C650.048 103.267 650.115 104.4 650.248 105.2L694.648 89.4C692.915 85.2667 690.382 81.8667 687.048 79.2C683.715 76.5333 679.382 75.2 674.048 75.2Z" fill="#FF2625" fill-opacity="0.05"/>
</svg>
