<svg width="23" height="14" viewBox="0 0 23 14" fill="none" xmlns="http://www.w3.org/2000/svg">
<path d="M13.9487 6.16288H7.64226V8.44983H11.4192C11.2806 9.42006 10.2757 11.3259 7.64226 11.3259C5.38996 11.3259 3.51881 9.45471 3.51881 7.09845C3.51881 4.77685 5.38996 2.9057 7.64226 2.9057C8.95899 2.9057 9.82526 3.46012 10.3104 3.94523L12.1122 2.21269C10.9341 1.10386 9.4441 0.445496 7.64226 0.445496C3.96927 0.445496 0.989304 3.42547 0.989304 7.09845C0.989304 10.8061 3.96927 13.7514 7.64226 13.7514C11.4885 13.7514 14.0527 11.0833 14.0527 7.27171C14.0527 6.82124 13.9834 6.50939 13.9487 6.16288ZM20.3591 6.37078V4.46499H18.4187V6.37078H16.4782V8.31123H18.4187V10.2517H20.3591V8.31123H22.2996V6.37078H20.3591Z" fill="#FF2625"/>
</svg>
